<svg width="28" height="28" viewBox="0 0 28 28" fill="none" xmlns="http://www.w3.org/2000/svg">
<path d="M19.0005 9.5H22.7505V21.375C22.7505 22.2344 22.438 22.9635 21.813 23.5625C21.214 24.1875 20.4849 24.5 19.6255 24.5H8.37549C7.51611 24.5 6.77393 24.1875 6.14893 23.5625C5.54997 22.9635 5.25049 22.2344 5.25049 21.375V9.5H9.00049C9.00049 8.11979 9.48226 6.94792 10.4458 5.98438C11.4354 4.99479 12.6203 4.5 14.0005 4.5C15.3807 4.5 16.5526 4.99479 17.5161 5.98438C18.5057 6.94792 19.0005 8.11979 19.0005 9.5ZM16.188 7.3125C15.589 6.6875 14.8599 6.375 14.0005 6.375C13.1411 6.375 12.3989 6.6875 11.7739 7.3125C11.175 7.91146 10.8755 8.64062 10.8755 9.5H17.1255C17.1255 8.64062 16.813 7.91146 16.188 7.3125ZM20.8755 21.375V11.375H19.0005V12.9375C19.0005 13.1979 18.9093 13.4193 18.7271 13.6016C18.5448 13.7839 18.3234 13.875 18.063 13.875C17.8026 13.875 17.5812 13.7839 17.3989 13.6016C17.2166 13.4193 17.1255 13.1979 17.1255 12.9375V11.375H10.8755V12.9375C10.8755 13.1979 10.7843 13.4193 10.6021 13.6016C10.4198 13.7839 10.1984 13.875 9.93799 13.875C9.67757 13.875 9.45622 13.7839 9.27393 13.6016C9.09163 13.4193 9.00049 13.1979 9.00049 12.9375V11.375H7.12549V21.375C7.12549 21.7135 7.24268 22 7.47705 22.2344C7.73747 22.4948 8.03695 22.625 8.37549 22.625H19.6255C19.964 22.625 20.2505 22.4948 20.4849 22.2344C20.7453 22 20.8755 21.7135 20.8755 21.375Z" fill="#111111"/>
</svg>
