<svg width="28" height="28" viewBox="0 0 28 28" fill="none" xmlns="http://www.w3.org/2000/svg">
<path d="M17.5161 16.375C18.9484 16.375 20.1724 16.8958 21.188 17.9375C22.2297 18.9531 22.7505 20.1771 22.7505 21.6094V22.625C22.7505 23.1458 22.5682 23.5885 22.2036 23.9531C21.839 24.3177 21.3963 24.5 20.8755 24.5H7.12549C6.60465 24.5 6.16195 24.3177 5.79736 23.9531C5.43278 23.5885 5.25049 23.1458 5.25049 22.625V21.6094C5.25049 20.1771 5.7583 18.9531 6.77393 17.9375C7.81559 16.8958 9.05257 16.375 10.4849 16.375C10.8234 16.375 11.3182 16.4792 11.9692 16.6875C12.6463 16.8958 13.3234 17 14.0005 17C14.6776 17 15.3547 16.8958 16.0317 16.6875C16.7088 16.4792 17.2036 16.375 17.5161 16.375ZM20.8755 22.625V21.6094C20.8755 20.6979 20.5369 19.9167 19.8599 19.2656C19.2088 18.5885 18.4276 18.25 17.5161 18.25C17.438 18.25 17.0213 18.3542 16.2661 18.5625C15.5369 18.7708 14.7817 18.875 14.0005 18.875C13.2192 18.875 12.451 18.7708 11.6958 18.5625C10.9666 18.3542 10.563 18.25 10.4849 18.25C9.5734 18.25 8.77913 18.5885 8.10205 19.2656C7.45101 19.9167 7.12549 20.6979 7.12549 21.6094V22.625H20.8755ZM17.9849 14.1094C16.8911 15.2031 15.563 15.75 14.0005 15.75C12.438 15.75 11.1099 15.2031 10.0161 14.1094C8.92236 13.0156 8.37549 11.6875 8.37549 10.125C8.37549 8.5625 8.92236 7.23438 10.0161 6.14062C11.1099 5.04688 12.438 4.5 14.0005 4.5C15.563 4.5 16.8911 5.04688 17.9849 6.14062C19.0786 7.23438 19.6255 8.5625 19.6255 10.125C19.6255 11.6875 19.0786 13.0156 17.9849 14.1094ZM16.6567 7.46875C15.9276 6.73958 15.0422 6.375 14.0005 6.375C12.9588 6.375 12.0734 6.73958 11.3442 7.46875C10.6151 8.19792 10.2505 9.08333 10.2505 10.125C10.2505 11.1667 10.6151 12.0521 11.3442 12.7812C12.0734 13.5104 12.9588 13.875 14.0005 13.875C15.0422 13.875 15.9276 13.5104 16.6567 12.7812C17.3859 12.0521 17.7505 11.1667 17.7505 10.125C17.7505 9.08333 17.3859 8.19792 16.6567 7.46875Z" fill="#111111"/>
</svg>
