<svg width="28" height="28" viewBox="0 0 28 28" fill="none" xmlns="http://www.w3.org/2000/svg">
<path d="M23.8442 22.8203C24.0786 23.0286 24.0786 23.25 23.8442 23.4844L22.9849 24.3438C22.7505 24.5781 22.5291 24.5781 22.3208 24.3438L17.5942 19.6172C17.4901 19.513 17.438 19.4089 17.438 19.3047V18.7578C15.9015 20.0859 14.1307 20.75 12.1255 20.75C9.8859 20.75 7.97184 19.9557 6.3833 18.3672C4.79476 16.7786 4.00049 14.8646 4.00049 12.625C4.00049 10.3854 4.79476 8.47135 6.3833 6.88281C7.97184 5.29427 9.8859 4.5 12.1255 4.5C14.3651 4.5 16.2791 5.29427 17.8677 6.88281C19.4562 8.47135 20.2505 10.3854 20.2505 12.625C20.2505 14.6302 19.5864 16.401 18.2583 17.9375H18.8052C18.9354 17.9375 19.0396 17.9896 19.1177 18.0938L23.8442 22.8203ZM7.71143 17.0391C8.93538 18.263 10.4067 18.875 12.1255 18.875C13.8442 18.875 15.3156 18.263 16.5396 17.0391C17.7635 15.8151 18.3755 14.3438 18.3755 12.625C18.3755 10.9062 17.7635 9.4349 16.5396 8.21094C15.3156 6.98698 13.8442 6.375 12.1255 6.375C10.4067 6.375 8.93538 6.98698 7.71143 8.21094C6.48747 9.4349 5.87549 10.9062 5.87549 12.625C5.87549 14.3438 6.48747 15.8151 7.71143 17.0391Z" fill="#111111"/>
</svg>
