<svg width="28" height="28" viewBox="0 0 28 28" fill="none" xmlns="http://www.w3.org/2000/svg">
<path d="M21.9302 7C22.8677 7.80729 23.4927 8.77083 23.8052 9.89062C24.1177 10.9844 24.1307 12.0391 23.8442 13.0547C23.5578 14.0703 23.063 14.9427 22.3599 15.6719L15.5239 22.625C15.1073 23.0417 14.6125 23.25 14.0396 23.25C13.4666 23.25 12.9718 23.0417 12.5552 22.625L5.71924 15.6719C5.01611 14.9427 4.52132 14.0703 4.23486 13.0547C3.9484 12.013 3.96143 10.9453 4.27393 9.85156C4.58643 8.75781 5.21143 7.80729 6.14893 7C7.26872 6.0625 8.58382 5.65885 10.0942 5.78906C11.6307 5.89323 12.9458 6.49219 14.0396 7.58594C15.1333 6.49219 16.4354 5.89323 17.9458 5.78906C19.4823 5.65885 20.8104 6.0625 21.9302 7ZM21.0317 14.3438C21.7869 13.5625 22.1646 12.612 22.1646 11.4922C22.1646 10.3464 21.6958 9.33073 20.7583 8.44531C19.9771 7.82031 19.0656 7.54688 18.0239 7.625C17.0083 7.70312 16.1359 8.11979 15.4067 8.875L14.0396 10.2422L12.6724 8.875C11.9432 8.11979 11.0578 7.70312 10.0161 7.625C9.00049 7.54688 8.10205 7.82031 7.3208 8.44531C6.3833 9.33073 5.91455 10.3464 5.91455 11.4922C5.91455 12.612 6.29215 13.5625 7.04736 14.3438L13.9224 21.2969C14.0005 21.401 14.0786 21.401 14.1567 21.2969L21.0317 14.3438Z" fill="#111111"/>
</svg>
